<?xml version="1.0" encoding="UTF-8" standalone="no"?>
<!-- Created with Inkscape (http://www.inkscape.org/) -->

<svg
   xmlns:dc="http://purl.org/dc/elements/1.1/"
   xmlns:cc="http://creativecommons.org/ns#"
   xmlns:rdf="http://www.w3.org/1999/02/22-rdf-syntax-ns#"
   xmlns:svg="http://www.w3.org/2000/svg"
   xmlns="http://www.w3.org/2000/svg"
   xmlns:sodipodi="http://sodipodi.sourceforge.net/DTD/sodipodi-0.dtd"
   xmlns:inkscape="http://www.inkscape.org/namespaces/inkscape"
   width="135.46687mm"
   height="118.53336mm"
   viewBox="0 0 135.46687 118.53336"
   version="1.1"
   id="svg4549"
   inkscape:version="0.92.3 (2405546, 2018-03-11)"
   sodipodi:docname="eraser-solid.svg">
  <defs
     id="defs4543" />
  <sodipodi:namedview
     id="base"
     pagecolor="#ffffff"
     bordercolor="#666666"
     borderopacity="1.0"
     inkscape:pageopacity="0.0"
     inkscape:pageshadow="2"
     inkscape:zoom="0.7"
     inkscape:cx="-78.422932"
     inkscape:cy="164.26433"
     inkscape:document-units="mm"
     inkscape:current-layer="layer1"
     showgrid="false"
     fit-margin-top="0"
     fit-margin-left="0"
     fit-margin-right="0"
     fit-margin-bottom="0"
     inkscape:window-width="2560"
     inkscape:window-height="1317"
     inkscape:window-x="0"
     inkscape:window-y="49"
     inkscape:window-maximized="1" />
  <metadata
     id="metadata4546">
    <rdf:RDF>
      <cc:Work
         rdf:about="">
        <dc:format>image/svg+xml</dc:format>
        <dc:type
           rdf:resource="http://purl.org/dc/dcmitype/StillImage" />
        <dc:title></dc:title>
      </cc:Work>
    </rdf:RDF>
  </metadata>
  <g
     inkscape:label="Layer 1"
     inkscape:groupmode="layer"
     id="layer1"
     transform="translate(-22.224898,-53.280934)">
    <path
       inkscape:connector-curvature="0"
       d="m 153.97199,117.29452 c 4.95961,-4.95961 4.95961,-13.00083 0,-17.960441 L 111.63865,57.000745 c -4.95961,-4.959615 -13.000564,-4.95988 -17.960708,0 L 25.944609,124.73408 c -4.959614,4.95961 -4.959614,13.00083 0,17.96044 l 25.400001,25.4 a 12.701058,12.701058 0 0 0 8.980487,3.71978 h 94.191673 c 1.75339,0 3.175,-1.42161 3.175,-3.175 v -10.58334 c 0,-1.75339 -1.42161,-3.175 -3.175,-3.175 H 116.38581 Z M 73.901927,100.72446 110.24853,137.07107 92.43837,154.88096 H 62.078756 L 40.912089,133.7143 Z"
       id="path2"
       style="fill:#ffffff;stroke-width:0.26458332" />
  </g>
</svg>
