<?xml version="1.0" encoding="UTF-8" standalone="no"?>
<svg
   xmlns:dc="http://purl.org/dc/elements/1.1/"
   xmlns:cc="http://creativecommons.org/ns#"
   xmlns:rdf="http://www.w3.org/1999/02/22-rdf-syntax-ns#"
   xmlns:svg="http://www.w3.org/2000/svg"
   xmlns="http://www.w3.org/2000/svg"
   xmlns:sodipodi="http://sodipodi.sourceforge.net/DTD/sodipodi-0.dtd"
   xmlns:inkscape="http://www.inkscape.org/namespaces/inkscape"
   width="24"
   height="24"
   viewBox="0 0 24 24"
   version="1.1"
   id="svg6"
   sodipodi:docname="icon.svg"
   inkscape:version="0.92.3 (2405546, 2018-03-11)">
  <metadata
     id="metadata12">
    <rdf:RDF>
      <cc:Work
         rdf:about="">
        <dc:format>image/svg+xml</dc:format>
        <dc:type
           rdf:resource="http://purl.org/dc/dcmitype/StillImage" />
      </cc:Work>
    </rdf:RDF>
  </metadata>
  <defs
     id="defs10" />
  <sodipodi:namedview
     pagecolor="#ffffff"
     bordercolor="#666666"
     borderopacity="1"
     objecttolerance="10"
     gridtolerance="10"
     guidetolerance="10"
     inkscape:pageopacity="0"
     inkscape:pageshadow="2"
     inkscape:window-width="2560"
     inkscape:window-height="1317"
     id="namedview8"
     showgrid="false"
     inkscape:zoom="39.333333"
     inkscape:cx="11.766245"
     inkscape:cy="11.845917"
     inkscape:window-x="0"
     inkscape:window-y="49"
     inkscape:window-maximized="1"
     inkscape:current-layer="svg6" />
  <path
     fill="none"
     d="M0 0h24v24H0z"
     id="path2" />
  <g
     id="g833"
     transform="matrix(1.2937853,0,0,1.2937853,-3.5254237,-3.5254237)">
    <path
       style="fill:#333333"
       id="path4"
       d="m 12,3 c -4.97,0 -9,4.03 -9,9 0,4.97 4.03,9 9,9 0.83,0 1.5,-0.67 1.5,-1.5 0,-0.39 -0.15,-0.74 -0.39,-1.01 -0.23,-0.26 -0.38,-0.61 -0.38,-0.99 0,-0.83 0.67,-1.5 1.5,-1.5 H 16 c 2.76,0 5,-2.24 5,-5 C 21,6.58 16.97,3 12,3 Z M 6.5,12 C 5.67,12 5,11.33 5,10.5 5,9.67 5.67,9 6.5,9 7.33,9 8,9.67 8,10.5 8,11.33 7.33,12 6.5,12 Z m 3,-4 C 8.67,8 8,7.33 8,6.5 8,5.67 8.67,5 9.5,5 10.33,5 11,5.67 11,6.5 11,7.33 10.33,8 9.5,8 Z m 5,0 C 13.67,8 13,7.33 13,6.5 13,5.67 13.67,5 14.5,5 15.33,5 16,5.67 16,6.5 16,7.33 15.33,8 14.5,8 Z m 3,4 C 16.67,12 16,11.33 16,10.5 16,9.67 16.67,9 17.5,9 18.33,9 19,9.67 19,10.5 19,11.33 18.33,12 17.5,12 Z"
       inkscape:connector-curvature="0" />
    <circle
       r="2.1483052"
       cy="10.894067"
       cx="6.3686442"
       id="path820"
       style="opacity:1;vector-effect:none;fill:#c83737;fill-opacity:1;stroke:none;stroke-width:25.14725113;stroke-linecap:round;stroke-linejoin:round;stroke-miterlimit:4;stroke-dasharray:none;stroke-dashoffset:0;stroke-opacity:1" />
    <circle
       style="opacity:1;vector-effect:none;fill:#71c837;fill-opacity:1;stroke:none;stroke-width:25.14725113;stroke-linecap:round;stroke-linejoin:round;stroke-miterlimit:4;stroke-dasharray:none;stroke-dashoffset:0;stroke-opacity:1"
       id="circle822"
       cx="9.3940678"
       cy="6.6737275"
       r="2.1483052" />
    <circle
       r="2.1483052"
       cy="6.648304"
       cx="14.402542"
       id="circle824"
       style="opacity:1;vector-effect:none;fill:#9955ff;fill-opacity:1;stroke:none;stroke-width:25.14725113;stroke-linecap:round;stroke-linejoin:round;stroke-miterlimit:4;stroke-dasharray:none;stroke-dashoffset:0;stroke-opacity:1" />
    <circle
       style="opacity:1;vector-effect:none;fill:#ffcc00;fill-opacity:1;stroke:none;stroke-width:25.14725113;stroke-linecap:round;stroke-linejoin:round;stroke-miterlimit:4;stroke-dasharray:none;stroke-dashoffset:0;stroke-opacity:1"
       id="circle826"
       cx="17.707626"
       cy="10.817796"
       r="2.1483052" />
  </g>
</svg>
