<?xml version="1.0" encoding="UTF-8" standalone="no"?>
<svg
   xmlns:dc="http://purl.org/dc/elements/1.1/"
   xmlns:cc="http://creativecommons.org/ns#"
   xmlns:rdf="http://www.w3.org/1999/02/22-rdf-syntax-ns#"
   xmlns:svg="http://www.w3.org/2000/svg"
   xmlns="http://www.w3.org/2000/svg"
   xmlns:sodipodi="http://sodipodi.sourceforge.net/DTD/sodipodi-0.dtd"
   xmlns:inkscape="http://www.inkscape.org/namespaces/inkscape"
   width="24"
   height="24"
   viewBox="0 0 24 24"
   version="1.1"
   id="svg8"
   sodipodi:docname="round-format_color_fill-24px.svg"
   inkscape:version="0.92.3 (2405546, 2018-03-11)">
  <metadata
     id="metadata14">
    <rdf:RDF>
      <cc:Work
         rdf:about="">
        <dc:format>image/svg+xml</dc:format>
        <dc:type
           rdf:resource="http://purl.org/dc/dcmitype/StillImage" />
      </cc:Work>
    </rdf:RDF>
  </metadata>
  <defs
     id="defs12" />
  <sodipodi:namedview
     pagecolor="#ffffff"
     bordercolor="#666666"
     borderopacity="1"
     objecttolerance="10"
     gridtolerance="10"
     guidetolerance="10"
     inkscape:pageopacity="0"
     inkscape:pageshadow="2"
     inkscape:window-width="2560"
     inkscape:window-height="1317"
     id="namedview10"
     showgrid="false"
     inkscape:zoom="27.812867"
     inkscape:cx="-0.19140999"
     inkscape:cy="17.444969"
     inkscape:window-x="0"
     inkscape:window-y="49"
     inkscape:window-maximized="1"
     inkscape:current-layer="svg8" />
  <path
     fill="none"
     d="M0 0h24v24H0V0z"
     id="path2" />
  <path
     d="M 17.733457,12.420189 7.2436757,1.9304084 c -0.4964824,-0.4964824 -1.2984923,-0.4964824 -1.7949746,0 -0.4964824,0.4964823 -0.4964824,1.2984922 0,1.7949746 L 7.5873942,5.8640761 1.0312813,12.420189 c -0.7510886,0.751089 -0.7510886,1.960468 0,2.698827 l 7.001674,7.001674 c 0.3691792,0.369179 0.8656615,0.560134 1.3494135,0.560134 0.483752,0 0.9802342,-0.190955 1.3494142,-0.560134 l 7.001674,-7.001674 c 0.751088,-0.738359 0.751088,-1.947738 0,-2.698827 z M 3.2845473,13.769602 9.3823688,7.671781 15.480191,13.769602 Z M 20.839654,15.67915 c 0,0 -2.546064,2.762478 -2.546064,4.45561 0,1.400335 1.145729,2.546064 2.546064,2.546064 1.400335,0 2.546063,-1.145729 2.546063,-2.546064 0,-1.693132 -2.546063,-4.45561 -2.546063,-4.45561 z"
     id="path4"
     inkscape:connector-curvature="0"
     style="stroke-width:1.27303159;fill:#ffffff" />
</svg>
