<?xml version="1.0" encoding="UTF-8" standalone="no"?>
<svg
   xmlns:dc="http://purl.org/dc/elements/1.1/"
   xmlns:cc="http://creativecommons.org/ns#"
   xmlns:rdf="http://www.w3.org/1999/02/22-rdf-syntax-ns#"
   xmlns:svg="http://www.w3.org/2000/svg"
   xmlns="http://www.w3.org/2000/svg"
   xmlns:sodipodi="http://sodipodi.sourceforge.net/DTD/sodipodi-0.dtd"
   xmlns:inkscape="http://www.inkscape.org/namespaces/inkscape"
   width="24"
   height="24"
   viewBox="0 0 24 24"
   version="1.1"
   id="svg6"
   sodipodi:docname="round-open_with-24px.svg"
   inkscape:version="0.92.3 (2405546, 2018-03-11)">
  <metadata
     id="metadata12">
    <rdf:RDF>
      <cc:Work
         rdf:about="">
        <dc:format>image/svg+xml</dc:format>
        <dc:type
           rdf:resource="http://purl.org/dc/dcmitype/StillImage" />
      </cc:Work>
    </rdf:RDF>
  </metadata>
  <defs
     id="defs10" />
  <sodipodi:namedview
     pagecolor="#ffffff"
     bordercolor="#666666"
     borderopacity="1"
     objecttolerance="10"
     gridtolerance="10"
     guidetolerance="10"
     inkscape:pageopacity="0"
     inkscape:pageshadow="2"
     inkscape:window-width="806"
     inkscape:window-height="491"
     id="namedview8"
     showgrid="false"
     inkscape:zoom="9.8333333"
     inkscape:cx="12"
     inkscape:cy="12"
     inkscape:window-x="0"
     inkscape:window-y="49"
     inkscape:window-maximized="0"
     inkscape:current-layer="svg6" />
  <path
     fill="none"
     d="M0 0h24v24H0V0z"
     id="path2" />
  <path
     d="M10.5 9h3c.28 0 .5-.22.5-.5V6h1.79c.45 0 .67-.54.35-.85l-3.79-3.79c-.2-.2-.51-.2-.71 0L7.85 5.15c-.31.31-.09.85.36.85H10v2.5c0 .28.22.5.5.5zm-2 1H6V8.21c0-.45-.54-.67-.85-.35l-3.79 3.79c-.2.2-.2.51 0 .71l3.79 3.79c.31.31.85.09.85-.36V14h2.5c.28 0 .5-.22.5-.5v-3c0-.28-.22-.5-.5-.5zm14.15 1.65l-3.79-3.79c-.32-.32-.86-.1-.86.35V10h-2.5c-.28 0-.5.22-.5.5v3c0 .28.22.5.5.5H18v1.79c0 .45.54.67.85.35l3.79-3.79c.2-.19.2-.51.01-.7zM13.5 15h-3c-.28 0-.5.22-.5.5V18H8.21c-.45 0-.67.54-.35.85l3.79 3.79c.2.2.51.2.71 0l3.79-3.79c.31-.31.09-.85-.35-.85H14v-2.5c0-.28-.22-.5-.5-.5z"
     id="path4"
     style="fill:#ffffff" />
</svg>
